<mxfile host="app.diagrams.net" modified="2022-04-04T12:48:04.610Z" agent="5.0 (Windows NT 10.0; Win64; x64) AppleWebKit/537.36 (KHTML, like Gecko) Chrome/100.0.4896.60 Safari/537.36" etag="04F3_NpC4bE07ST0GjDl" version="17.4.0" type="github">
  <diagram id="a4iniLPPF76ozl8piliu" name="Page-1">
    <mxGraphModel dx="3288" dy="1246" grid="1" gridSize="10" guides="1" tooltips="1" connect="1" arrows="1" fold="1" page="1" pageScale="1" pageWidth="827" pageHeight="1169" math="0" shadow="0">
      <root>
        <mxCell id="0" />
        <mxCell id="1" parent="0" />
        <mxCell id="IZJOyX6U1HNmdYvwaypg-1" style="edgeStyle=orthogonalEdgeStyle;rounded=0;orthogonalLoop=1;jettySize=auto;html=1;strokeWidth=1;" parent="1" source="IZJOyX6U1HNmdYvwaypg-3" edge="1">
          <mxGeometry relative="1" as="geometry">
            <mxPoint x="710" y="630" as="targetPoint" />
          </mxGeometry>
        </mxCell>
        <mxCell id="IZJOyX6U1HNmdYvwaypg-2" style="edgeStyle=orthogonalEdgeStyle;rounded=0;orthogonalLoop=1;jettySize=auto;html=1;strokeWidth=1;" parent="1" source="IZJOyX6U1HNmdYvwaypg-3" edge="1">
          <mxGeometry relative="1" as="geometry">
            <mxPoint x="600" y="560" as="targetPoint" />
          </mxGeometry>
        </mxCell>
        <mxCell id="IZJOyX6U1HNmdYvwaypg-3" value="SEND TO -&amp;gt; HOME" style="rounded=1;whiteSpace=wrap;html=1;fillColor=#d5e8d4;strokeColor=#82b366;" parent="1" vertex="1">
          <mxGeometry x="540" y="600" width="120" height="60" as="geometry" />
        </mxCell>
        <mxCell id="IZJOyX6U1HNmdYvwaypg-4" value="" style="rounded=0;whiteSpace=wrap;html=1;" parent="1" vertex="1">
          <mxGeometry x="1000" y="320" width="120" height="80" as="geometry" />
        </mxCell>
        <mxCell id="IZJOyX6U1HNmdYvwaypg-5" value="" style="endArrow=none;html=1;exitX=0.5;exitY=1;exitDx=0;exitDy=0;" parent="1" source="IZJOyX6U1HNmdYvwaypg-4" edge="1">
          <mxGeometry width="50" height="50" relative="1" as="geometry">
            <mxPoint x="1010" y="370" as="sourcePoint" />
            <mxPoint x="1060" y="320" as="targetPoint" />
          </mxGeometry>
        </mxCell>
        <mxCell id="IZJOyX6U1HNmdYvwaypg-6" value="bin 1" style="text;html=1;strokeColor=none;fillColor=none;align=center;verticalAlign=middle;whiteSpace=wrap;rounded=0;" parent="1" vertex="1">
          <mxGeometry x="1010" y="330" width="40" height="20" as="geometry" />
        </mxCell>
        <mxCell id="IZJOyX6U1HNmdYvwaypg-7" value="bin 2" style="text;html=1;strokeColor=none;fillColor=none;align=center;verticalAlign=middle;whiteSpace=wrap;rounded=0;" parent="1" vertex="1">
          <mxGeometry x="1070" y="330" width="40" height="20" as="geometry" />
        </mxCell>
        <mxCell id="IZJOyX6U1HNmdYvwaypg-8" value="Home area" style="text;html=1;strokeColor=#6c8ebf;fillColor=#dae8fc;align=center;verticalAlign=middle;whiteSpace=wrap;rounded=0;" parent="1" vertex="1">
          <mxGeometry x="1030" y="290" width="80" height="20" as="geometry" />
        </mxCell>
        <mxCell id="IZJOyX6U1HNmdYvwaypg-9" value="AMR" style="whiteSpace=wrap;html=1;aspect=fixed;fillColor=#e1d5e7;strokeColor=#9673a6;" parent="1" vertex="1">
          <mxGeometry x="790" y="370" width="80" height="80" as="geometry" />
        </mxCell>
        <mxCell id="IZJOyX6U1HNmdYvwaypg-10" value="" style="shape=trapezoid;perimeter=trapezoidPerimeter;whiteSpace=wrap;html=1;fixedSize=1;" parent="1" vertex="1">
          <mxGeometry x="790" y="350" width="80" height="20" as="geometry" />
        </mxCell>
        <mxCell id="IZJOyX6U1HNmdYvwaypg-11" value="" style="shape=link;html=1;strokeWidth=5;" parent="1" edge="1">
          <mxGeometry width="100" relative="1" as="geometry">
            <mxPoint x="870" y="440" as="sourcePoint" />
            <mxPoint x="930" y="440" as="targetPoint" />
          </mxGeometry>
        </mxCell>
        <mxCell id="IZJOyX6U1HNmdYvwaypg-12" style="edgeStyle=orthogonalEdgeStyle;rounded=0;orthogonalLoop=1;jettySize=auto;html=1;strokeWidth=1;" parent="1" source="IZJOyX6U1HNmdYvwaypg-13" target="IZJOyX6U1HNmdYvwaypg-3" edge="1">
          <mxGeometry relative="1" as="geometry" />
        </mxCell>
        <mxCell id="IZJOyX6U1HNmdYvwaypg-13" value="START" style="ellipse;whiteSpace=wrap;html=1;" parent="1" vertex="1">
          <mxGeometry x="380" y="605" width="110" height="50" as="geometry" />
        </mxCell>
        <mxCell id="IZJOyX6U1HNmdYvwaypg-14" value="Order processing disabled, &#39;Proces orders&#39; appears" style="rounded=1;whiteSpace=wrap;html=1;" parent="1" vertex="1">
          <mxGeometry x="540" y="500" width="120" height="60" as="geometry" />
        </mxCell>
        <mxCell id="IZJOyX6U1HNmdYvwaypg-15" value="" style="edgeStyle=orthogonalEdgeStyle;rounded=0;orthogonalLoop=1;jettySize=auto;html=1;strokeWidth=1;" parent="1" source="IZJOyX6U1HNmdYvwaypg-17" target="IZJOyX6U1HNmdYvwaypg-18" edge="1">
          <mxGeometry relative="1" as="geometry" />
        </mxCell>
        <mxCell id="IZJOyX6U1HNmdYvwaypg-16" style="edgeStyle=orthogonalEdgeStyle;rounded=0;orthogonalLoop=1;jettySize=auto;html=1;strokeWidth=1;" parent="1" source="IZJOyX6U1HNmdYvwaypg-17" target="IZJOyX6U1HNmdYvwaypg-23" edge="1">
          <mxGeometry relative="1" as="geometry" />
        </mxCell>
        <mxCell id="IZJOyX6U1HNmdYvwaypg-17" value="Are there unprocessed goals&lt;br&gt;&amp;nbsp;for Home?" style="rhombus;whiteSpace=wrap;html=1;rounded=0;" parent="1" vertex="1">
          <mxGeometry x="710" y="590" width="197.5" height="80" as="geometry" />
        </mxCell>
        <mxCell id="IZJOyX6U1HNmdYvwaypg-18" value="do nothing" style="whiteSpace=wrap;html=1;rounded=0;" parent="1" vertex="1">
          <mxGeometry x="870" y="730" width="77.5" height="40" as="geometry" />
        </mxCell>
        <mxCell id="IZJOyX6U1HNmdYvwaypg-19" value="NO&lt;br&gt;" style="text;html=1;align=center;verticalAlign=middle;resizable=0;points=[];autosize=1;" parent="1" vertex="1">
          <mxGeometry x="890" y="600" width="30" height="20" as="geometry" />
        </mxCell>
        <mxCell id="IZJOyX6U1HNmdYvwaypg-20" value="YES" style="text;html=1;align=center;verticalAlign=middle;resizable=0;points=[];autosize=1;" parent="1" vertex="1">
          <mxGeometry x="810" y="670" width="40" height="20" as="geometry" />
        </mxCell>
        <mxCell id="IZJOyX6U1HNmdYvwaypg-21" style="edgeStyle=orthogonalEdgeStyle;rounded=0;orthogonalLoop=1;jettySize=auto;html=1;entryX=0.75;entryY=0;entryDx=0;entryDy=0;strokeWidth=1;" parent="1" source="IZJOyX6U1HNmdYvwaypg-23" target="IZJOyX6U1HNmdYvwaypg-18" edge="1">
          <mxGeometry relative="1" as="geometry">
            <Array as="points">
              <mxPoint x="1070" y="690" />
              <mxPoint x="928" y="690" />
            </Array>
          </mxGeometry>
        </mxCell>
        <mxCell id="IZJOyX6U1HNmdYvwaypg-22" style="edgeStyle=orthogonalEdgeStyle;rounded=0;orthogonalLoop=1;jettySize=auto;html=1;exitX=1;exitY=0.5;exitDx=0;exitDy=0;strokeWidth=1;" parent="1" source="IZJOyX6U1HNmdYvwaypg-23" edge="1">
          <mxGeometry relative="1" as="geometry">
            <mxPoint x="1250" y="630.3333333333335" as="targetPoint" />
          </mxGeometry>
        </mxCell>
        <mxCell id="IZJOyX6U1HNmdYvwaypg-23" value="The last processed goal is at &lt;br&gt;home position?&amp;nbsp;" style="rhombus;whiteSpace=wrap;html=1;rounded=0;" parent="1" vertex="1">
          <mxGeometry x="956.25" y="590" width="227.5" height="80" as="geometry" />
        </mxCell>
        <mxCell id="IZJOyX6U1HNmdYvwaypg-24" value="YES" style="text;html=1;strokeColor=none;fillColor=none;align=center;verticalAlign=middle;whiteSpace=wrap;rounded=0;" parent="1" vertex="1">
          <mxGeometry x="1070" y="670" width="40" height="20" as="geometry" />
        </mxCell>
        <mxCell id="IZJOyX6U1HNmdYvwaypg-25" style="edgeStyle=orthogonalEdgeStyle;rounded=0;orthogonalLoop=1;jettySize=auto;html=1;strokeWidth=1;" parent="1" source="IZJOyX6U1HNmdYvwaypg-26" target="IZJOyX6U1HNmdYvwaypg-28" edge="1">
          <mxGeometry relative="1" as="geometry" />
        </mxCell>
        <mxCell id="IZJOyX6U1HNmdYvwaypg-26" value="Retrieve ID_bin, which are currently occupied by the AMRs, using infro from the &#39;Tracked objects&#39; table (in tracked objects table in Rack and Bin columns are not NULL)" style="whiteSpace=wrap;html=1;rounded=0;fillColor=#fff2cc;strokeColor=#d6b656;" parent="1" vertex="1">
          <mxGeometry x="1250" y="587.5" width="210" height="85" as="geometry" />
        </mxCell>
        <mxCell id="IZJOyX6U1HNmdYvwaypg-27" style="edgeStyle=orthogonalEdgeStyle;rounded=0;orthogonalLoop=1;jettySize=auto;html=1;entryX=0.5;entryY=0;entryDx=0;entryDy=0;strokeWidth=1;" parent="1" source="IZJOyX6U1HNmdYvwaypg-28" target="IZJOyX6U1HNmdYvwaypg-30" edge="1">
          <mxGeometry relative="1" as="geometry" />
        </mxCell>
        <mxCell id="IZJOyX6U1HNmdYvwaypg-28" value="Retrieve all racks with the appearance HOME_AREA" style="whiteSpace=wrap;html=1;rounded=0;" parent="1" vertex="1">
          <mxGeometry x="1275" y="730" width="160" height="60" as="geometry" />
        </mxCell>
        <mxCell id="IZJOyX6U1HNmdYvwaypg-29" style="edgeStyle=orthogonalEdgeStyle;rounded=0;orthogonalLoop=1;jettySize=auto;html=1;strokeWidth=1;" parent="1" source="IZJOyX6U1HNmdYvwaypg-30" edge="1">
          <mxGeometry relative="1" as="geometry">
            <mxPoint x="1140" y="870" as="targetPoint" />
          </mxGeometry>
        </mxCell>
        <mxCell id="IZJOyX6U1HNmdYvwaypg-30" value="Filter out bins occupied by the AMRs" style="whiteSpace=wrap;html=1;rounded=0;" parent="1" vertex="1">
          <mxGeometry x="1275" y="840" width="160" height="60" as="geometry" />
        </mxCell>
        <mxCell id="IZJOyX6U1HNmdYvwaypg-31" style="edgeStyle=orthogonalEdgeStyle;rounded=0;orthogonalLoop=1;jettySize=auto;html=1;strokeWidth=1;" parent="1" source="IZJOyX6U1HNmdYvwaypg-33" edge="1">
          <mxGeometry relative="1" as="geometry">
            <mxPoint x="950.0000000000005" y="870" as="targetPoint" />
          </mxGeometry>
        </mxCell>
        <mxCell id="IZJOyX6U1HNmdYvwaypg-32" style="edgeStyle=orthogonalEdgeStyle;rounded=0;orthogonalLoop=1;jettySize=auto;html=1;strokeWidth=1;" parent="1" source="IZJOyX6U1HNmdYvwaypg-33" edge="1">
          <mxGeometry relative="1" as="geometry">
            <mxPoint x="1075" y="950" as="targetPoint" />
          </mxGeometry>
        </mxCell>
        <mxCell id="IZJOyX6U1HNmdYvwaypg-33" value="Is there at least one free home area?" style="rhombus;whiteSpace=wrap;html=1;fillColor=#fff2cc;strokeColor=#d6b656;" parent="1" vertex="1">
          <mxGeometry x="1010" y="830" width="130" height="80" as="geometry" />
        </mxCell>
        <mxCell id="IZJOyX6U1HNmdYvwaypg-34" value="Gets the &quot;Home area is not available&quot; error" style="whiteSpace=wrap;html=1;rounded=0;" parent="1" vertex="1">
          <mxGeometry x="810" y="840" width="137.5" height="60" as="geometry" />
        </mxCell>
        <mxCell id="IZJOyX6U1HNmdYvwaypg-35" value="NO" style="text;html=1;align=center;verticalAlign=middle;resizable=0;points=[];autosize=1;" parent="1" vertex="1">
          <mxGeometry x="1180" y="605" width="30" height="20" as="geometry" />
        </mxCell>
        <mxCell id="IZJOyX6U1HNmdYvwaypg-36" value="NO" style="text;html=1;align=center;verticalAlign=middle;resizable=0;points=[];autosize=1;" parent="1" vertex="1">
          <mxGeometry x="965" y="850" width="30" height="20" as="geometry" />
        </mxCell>
        <mxCell id="IZJOyX6U1HNmdYvwaypg-37" style="edgeStyle=orthogonalEdgeStyle;rounded=0;orthogonalLoop=1;jettySize=auto;html=1;strokeWidth=1;" parent="1" source="IZJOyX6U1HNmdYvwaypg-38" target="IZJOyX6U1HNmdYvwaypg-49" edge="1">
          <mxGeometry relative="1" as="geometry">
            <mxPoint x="1075.0000000000005" y="1040" as="targetPoint" />
          </mxGeometry>
        </mxCell>
        <mxCell id="IZJOyX6U1HNmdYvwaypg-38" value="Choose the nearest free home area (what does it mean)" style="whiteSpace=wrap;html=1;rounded=0;" parent="1" vertex="1">
          <mxGeometry x="1015" y="950" width="120" height="60" as="geometry" />
        </mxCell>
        <mxCell id="IZJOyX6U1HNmdYvwaypg-39" value="" style="ellipse;whiteSpace=wrap;html=1;aspect=fixed;" parent="1" vertex="1">
          <mxGeometry x="1020" y="350" width="20" height="20" as="geometry" />
        </mxCell>
        <mxCell id="IZJOyX6U1HNmdYvwaypg-40" value="" style="ellipse;whiteSpace=wrap;html=1;aspect=fixed;" parent="1" vertex="1">
          <mxGeometry x="1080" y="350" width="20" height="20" as="geometry" />
        </mxCell>
        <mxCell id="IZJOyX6U1HNmdYvwaypg-41" value="Send goal to the camera server" style="rounded=0;whiteSpace=wrap;html=1;fontStyle=1" parent="1" vertex="1">
          <mxGeometry x="1015" y="1240" width="120" height="60" as="geometry" />
        </mxCell>
        <mxCell id="IZJOyX6U1HNmdYvwaypg-42" value="" style="endArrow=classic;startArrow=classic;html=1;strokeWidth=1;" parent="1" edge="1">
          <mxGeometry width="50" height="50" relative="1" as="geometry">
            <mxPoint x="860" y="450" as="sourcePoint" />
            <mxPoint x="1095" y="360" as="targetPoint" />
          </mxGeometry>
        </mxCell>
        <mxCell id="IZJOyX6U1HNmdYvwaypg-43" value="" style="endArrow=classic;startArrow=classic;html=1;strokeWidth=1;" parent="1" edge="1">
          <mxGeometry width="50" height="50" relative="1" as="geometry">
            <mxPoint x="860" y="450" as="sourcePoint" />
            <mxPoint x="1035.0000000000005" y="360" as="targetPoint" />
          </mxGeometry>
        </mxCell>
        <mxCell id="IZJOyX6U1HNmdYvwaypg-44" value="distance 1" style="text;html=1;strokeColor=none;fillColor=none;align=center;verticalAlign=middle;whiteSpace=wrap;rounded=0;rotation=-15;" parent="1" vertex="1">
          <mxGeometry x="907.5" y="380" width="72.5" height="20" as="geometry" />
        </mxCell>
        <mxCell id="IZJOyX6U1HNmdYvwaypg-45" value="distance 2" style="text;html=1;strokeColor=none;fillColor=none;align=center;verticalAlign=middle;whiteSpace=wrap;rounded=0;rotation=-15;" parent="1" vertex="1">
          <mxGeometry x="965" y="420" width="72.5" height="20" as="geometry" />
        </mxCell>
        <mxCell id="IZJOyX6U1HNmdYvwaypg-46" style="edgeStyle=orthogonalEdgeStyle;rounded=0;orthogonalLoop=1;jettySize=auto;html=1;entryX=0.5;entryY=0;entryDx=0;entryDy=0;strokeWidth=1;" parent="1" source="IZJOyX6U1HNmdYvwaypg-47" target="IZJOyX6U1HNmdYvwaypg-41" edge="1">
          <mxGeometry relative="1" as="geometry" />
        </mxCell>
        <mxCell id="IZJOyX6U1HNmdYvwaypg-47" value="Order processing disabled, &#39;Proces orders&#39; appears" style="whiteSpace=wrap;html=1;rounded=0;" parent="1" vertex="1">
          <mxGeometry x="1015" y="1140" width="120" height="60" as="geometry" />
        </mxCell>
        <mxCell id="IZJOyX6U1HNmdYvwaypg-48" style="edgeStyle=orthogonalEdgeStyle;rounded=0;orthogonalLoop=1;jettySize=auto;html=1;strokeWidth=1;" parent="1" source="IZJOyX6U1HNmdYvwaypg-49" target="IZJOyX6U1HNmdYvwaypg-47" edge="1">
          <mxGeometry relative="1" as="geometry" />
        </mxCell>
        <mxCell id="IZJOyX6U1HNmdYvwaypg-49" value="Create a goal (amr action is home area)" style="rounded=0;whiteSpace=wrap;html=1;fontStyle=1" parent="1" vertex="1">
          <mxGeometry x="1015" y="1050" width="120" height="60" as="geometry" />
        </mxCell>
      </root>
    </mxGraphModel>
  </diagram>
</mxfile>
